<svg width="83" height="108" viewBox="0 0 83 108" fill="none" xmlns="http://www.w3.org/2000/svg">
<circle cx="41.8438" cy="53.4823" r="33.5253" stroke="#E1AC3F"/>
<path d="M81.8147 73.9531H1.19192L41.7622 13.1444L81.8147 73.9531Z" stroke="#E1AC3F"/>
<path d="M1.18531 33.1831L81.8081 33.1831L41.2378 93.9918L1.18531 33.1831Z" stroke="#E1AC3F"/>
<circle cx="41.2582" cy="53.8829" r="11.701" stroke="#E1AC3F"/>
<circle cx="41.2581" cy="53.8829" r="4.81166" fill="#E1AC3F"/>
<path d="M15.765 52.8015C23.8541 46.5667 44.565 31.7701 66.7188 52.8015C59.2746 61.7772 39.5803 77.7395 15.765 52.8015Z" stroke="#E1AC3F"/>
<mask id="path-7-inside-1_706_1653" fill="white">
<path fill-rule="evenodd" clip-rule="evenodd" d="M39.4336 97.3883C42.7321 97.3883 45.406 100.158 45.406 103.574C45.406 104.644 45.1439 105.65 44.6825 106.528C46.3935 105.392 47.5215 103.447 47.5215 101.24C47.5215 97.7366 44.6817 94.8968 41.1787 94.8968C38.3655 94.8968 35.98 96.7283 35.1496 99.264C36.2349 98.1071 37.7532 97.3883 39.4336 97.3883Z"/>
</mask>
<path fill-rule="evenodd" clip-rule="evenodd" d="M39.4336 97.3883C42.7321 97.3883 45.406 100.158 45.406 103.574C45.406 104.644 45.1439 105.65 44.6825 106.528C46.3935 105.392 47.5215 103.447 47.5215 101.24C47.5215 97.7366 44.6817 94.8968 41.1787 94.8968C38.3655 94.8968 35.98 96.7283 35.1496 99.264C36.2349 98.1071 37.7532 97.3883 39.4336 97.3883Z" fill="#E1AC3F"/>
<path d="M44.6825 106.528L46.8949 109.86L41.1419 104.666L44.6825 106.528ZM35.1496 99.264L38.067 102.001L31.3483 98.0191L35.1496 99.264ZM41.406 103.574C41.406 102.233 40.3918 101.388 39.4336 101.388V93.3883C45.0724 93.3883 49.406 98.082 49.406 103.574H41.406ZM41.1419 104.666C41.3066 104.353 41.406 103.984 41.406 103.574H49.406C49.406 105.303 48.9811 106.947 48.223 108.389L41.1419 104.666ZM42.47 103.195C43.1121 102.769 43.5215 102.051 43.5215 101.24H51.5215C51.5215 104.844 49.6749 108.014 46.8949 109.86L42.47 103.195ZM43.5215 101.24C43.5215 99.9457 42.4726 98.8968 41.1787 98.8968V90.8968C46.8909 90.8968 51.5215 95.5275 51.5215 101.24H43.5215ZM41.1787 98.8968C40.1457 98.8968 39.2591 99.568 38.951 100.509L31.3483 98.0191C32.701 93.8886 36.5852 90.8968 41.1787 90.8968V98.8968ZM39.4336 101.388C38.9261 101.388 38.4437 101.599 38.067 102.001L32.2323 96.5274C34.0261 94.6151 36.5803 93.3883 39.4336 93.3883V101.388Z" fill="#E1AC3F" mask="url(#path-7-inside-1_706_1653)"/>
<path d="M18.5356 97.0758L19.793 94.6146L21.0505 97.0758L23.7354 98.2285L21.0505 99.3812L19.793 101.842L18.5356 99.3812L15.8507 98.2285L18.5356 97.0758Z" fill="#E1AC3F"/>
<path d="M37.9666 103.064L39.0265 100.989L40.0865 103.064L42.3496 104.035L40.0865 105.007L39.0265 107.082L37.9666 105.007L35.7034 104.035L37.9666 103.064Z" fill="#E1AC3F"/>
<path d="M61.884 97.0758L63.0367 94.6146L64.1894 97.0758L66.6505 98.2285L64.1894 99.3812L63.0367 101.842L61.884 99.3812L59.4229 98.2285L61.884 97.0758Z" fill="#E1AC3F"/>
<circle cx="1.64264" cy="1.64264" r="1.64264" transform="matrix(1 0 0 -1 13.2225 92.6436)" fill="#E1AC3F"/>
<circle cx="1.64264" cy="1.64264" r="1.64264" transform="matrix(1 0 0 -1 65.9935 92.6436)" fill="#E1AC3F"/>
<mask id="path-14-inside-2_706_1653" fill="white">
<path fill-rule="evenodd" clip-rule="evenodd" d="M39.4336 9.74818C42.7321 9.74818 45.406 6.97874 45.406 3.56247C45.406 2.49277 45.1439 1.48648 44.6825 0.608771C46.3935 1.74477 47.5215 3.68907 47.5215 5.89681C47.5215 9.39984 44.6817 12.2396 41.1787 12.2396C38.3655 12.2396 35.98 10.4081 35.1496 7.87247C36.2349 9.02939 37.7532 9.74818 39.4336 9.74818Z"/>
</mask>
<path fill-rule="evenodd" clip-rule="evenodd" d="M39.4336 9.74818C42.7321 9.74818 45.406 6.97874 45.406 3.56247C45.406 2.49277 45.1439 1.48648 44.6825 0.608771C46.3935 1.74477 47.5215 3.68907 47.5215 5.89681C47.5215 9.39984 44.6817 12.2396 41.1787 12.2396C38.3655 12.2396 35.98 10.4081 35.1496 7.87247C36.2349 9.02939 37.7532 9.74818 39.4336 9.74818Z" fill="#E1AC3F"/>
<path d="M44.6825 0.608771L46.8949 -2.72366L41.1419 2.47007L44.6825 0.608771ZM35.1496 7.87247L38.067 5.13585L31.3483 9.11736L35.1496 7.87247ZM41.406 3.56247C41.406 4.90307 40.3918 5.74818 39.4336 5.74818V13.7482C45.0724 13.7482 49.406 9.05442 49.406 3.56247H41.406ZM41.1419 2.47007C41.3066 2.78337 41.406 3.15204 41.406 3.56247H49.406C49.406 1.8335 48.9811 0.189588 48.223 -1.25253L41.1419 2.47007ZM42.47 3.9412C43.1121 4.36752 43.5215 5.08525 43.5215 5.89681H51.5215C51.5215 2.29289 49.6749 -0.877982 46.8949 -2.72366L42.47 3.9412ZM43.5215 5.89681C43.5215 7.1907 42.4726 8.2396 41.1787 8.2396V16.2396C46.8909 16.2396 51.5215 11.609 51.5215 5.89681H43.5215ZM41.1787 8.2396C40.1457 8.2396 39.2591 7.5684 38.951 6.62758L31.3483 9.11736C32.701 13.2479 36.5852 16.2396 41.1787 16.2396V8.2396ZM39.4336 5.74818C38.9261 5.74818 38.4437 5.5374 38.067 5.13585L32.2323 10.6091C34.0261 12.5214 36.5803 13.7482 39.4336 13.7482V5.74818Z" fill="#E1AC3F" mask="url(#path-14-inside-2_706_1653)"/>
<path d="M18.5356 10.0607L19.793 12.5218L21.0505 10.0607L23.7354 8.90801L21.0505 7.75532L19.793 5.29419L18.5356 7.75532L15.8507 8.90801L18.5356 10.0607Z" fill="#E1AC3F"/>
<path d="M37.9666 4.0727L39.0265 6.14724L40.0865 4.0727L42.3496 3.10109L40.0865 2.12947L39.0265 0.0549316L37.9666 2.12947L35.7034 3.10109L37.9666 4.0727Z" fill="#E1AC3F"/>
<path d="M61.884 10.0607L63.0367 12.5218L64.1894 10.0607L66.6505 8.90801L64.1894 7.75532L63.0367 5.29419L61.884 7.75532L59.4229 8.90801L61.884 10.0607Z" fill="#E1AC3F"/>
<circle cx="14.8651" cy="16.1356" r="1.64264" fill="#E1AC3F"/>
<circle cx="67.6362" cy="16.1356" r="1.64264" fill="#E1AC3F"/>
</svg>
