<svg width="24" height="25" viewBox="0 0 24 25" fill="none" xmlns="http://www.w3.org/2000/svg">
<path d="M18 21.959L16.6 20.559L18.175 18.959H14V16.959H18.175L16.6 15.359L18 13.959L22 17.959L18 21.959ZM3 21.959V6.95898C3 6.40898 3.19583 5.93815 3.5875 5.54648C3.97917 5.15482 4.45 4.95898 5 4.95898H17C17.55 4.95898 18.0208 5.15482 18.4125 5.54648C18.8042 5.93815 19 6.40898 19 6.95898V12.034C18.8333 12.0007 18.6667 11.9798 18.5 11.9715C18.3333 11.9632 18.1667 11.959 18 11.959C17.8333 11.959 17.6667 11.9632 17.5 11.9715C17.3333 11.9798 17.1667 12.0007 17 12.034V6.95898H5V16.959H12.075C12.0417 17.1257 12.0208 17.2923 12.0125 17.459C12.0042 17.6257 12 17.7923 12 17.959C12 18.1257 12.0042 18.2923 12.0125 18.459C12.0208 18.6257 12.0417 18.7923 12.075 18.959H6L3 21.959ZM7 10.959H15V8.95898H7V10.959ZM7 14.959H12V12.959H7V14.959Z" fill="#F2ACAC"/>
</svg>
