<svg width="600" height="700" viewBox="0 0 600 700" fill="none" xmlns="http://www.w3.org/2000/svg">
<path d="M57.578 243.422C57.578 109.536 166.114 1 300 1C433.886 1 542.422 109.536 542.422 243.422V569.12H57.578V243.422Z" stroke="#E1AC3F" stroke-width="2"/>
<path d="M542.399 568.985C541.877 580.547 532.337 589.761 520.646 589.761H79.3544C67.6628 589.761 58.1232 580.547 57.6006 568.985H542.399Z" stroke="#E1AC3F" stroke-width="2"/>
<path d="M143.701 590.507H453.452V600.654C453.452 615.566 441.364 627.654 426.452 627.654H170.701C155.789 627.654 143.701 615.566 143.701 600.654V590.507Z" stroke="#E1AC3F" stroke-width="2"/>
<path d="M296.729 628.401H297.576V679.359C297.576 679.593 297.387 679.783 297.153 679.783C296.919 679.783 296.729 679.593 296.729 679.359V628.401Z" stroke="#E1AC3F" stroke-width="1.42352"/>
<path d="M293.521 692.487L297.153 700L300.785 692.487L308.541 688.968L300.785 685.449L297.153 677.935L293.521 685.449L285.765 688.968L293.521 692.487Z" fill="#E1AC3F"/>
<path d="M88.8955 241.287C88.8955 124.697 183.41 30.1822 300 30.1822C416.59 30.1822 511.105 124.697 511.105 241.287V539.938H88.8955V241.287Z" stroke="#E1AC3F" stroke-width="2"/>
<circle cx="301.768" cy="327.41" r="173.986" stroke="#E1AC3F" stroke-width="2"/>
<path d="M510.248 434.259H89.7648L301.357 117.115L510.248 434.259Z" stroke="#E1AC3F" stroke-width="2"/>
<path d="M89.7518 221.444L510.235 221.444L298.643 538.588L89.7518 221.444Z" stroke="#E1AC3F" stroke-width="2"/>
<circle cx="301.768" cy="338.015" r="61.7476" stroke="#E1AC3F" stroke-width="2"/>
<path d="M291.677 347.379L301.779 367.98L311.882 347.379L333.453 337.73L311.882 328.082L301.779 307.48L291.677 328.082L270.106 337.73L291.677 347.379Z" fill="#E1AC3F"/>
<path d="M160.365 326.967C204.701 296.477 318.559 228.427 439.636 326.967C398.835 370.861 291.605 467.044 160.365 326.967Z" stroke="#E1AC3F" stroke-width="2"/>
<mask id="path-13-inside-1_705_172" fill="white">
<path fill-rule="evenodd" clip-rule="evenodd" d="M301.779 115.305C325.168 115.305 344.129 96.3445 344.129 72.9554C344.129 49.5663 325.168 30.6057 301.779 30.6057C295.455 30.6057 289.455 31.9918 284.066 34.4768C287.8 32.9471 291.881 32.1046 296.158 32.1046C313.958 32.1046 328.388 46.7026 328.388 64.7102C328.388 82.7177 313.958 97.3157 296.158 97.3157C278.357 97.3157 263.927 82.7177 263.927 64.7102C263.927 55.1256 268.015 46.507 274.523 40.5412C265.294 48.3098 259.43 59.9478 259.43 72.9554C259.43 96.3445 278.39 115.305 301.779 115.305Z"/>
</mask>
<path fill-rule="evenodd" clip-rule="evenodd" d="M301.779 115.305C325.168 115.305 344.129 96.3445 344.129 72.9554C344.129 49.5663 325.168 30.6057 301.779 30.6057C295.455 30.6057 289.455 31.9918 284.066 34.4768C287.8 32.9471 291.881 32.1046 296.158 32.1046C313.958 32.1046 328.388 46.7026 328.388 64.7102C328.388 82.7177 313.958 97.3157 296.158 97.3157C278.357 97.3157 263.927 82.7177 263.927 64.7102C263.927 55.1256 268.015 46.507 274.523 40.5412C265.294 48.3098 259.43 59.9478 259.43 72.9554C259.43 96.3445 278.39 115.305 301.779 115.305Z" fill="#E1AC3F"/>
<path d="M284.066 34.4768L282.391 30.8444L285.582 38.1782L284.066 34.4768ZM274.523 40.5412L277.226 43.4899L271.947 37.481L274.523 40.5412ZM340.129 72.9554C340.129 94.1354 322.959 111.305 301.779 111.305V119.305C327.378 119.305 348.129 98.5537 348.129 72.9554H340.129ZM301.779 34.6057C322.959 34.6057 340.129 51.7755 340.129 72.9554H348.129C348.129 47.3572 327.378 26.6057 301.779 26.6057V34.6057ZM285.741 38.1092C290.616 35.8615 296.045 34.6057 301.779 34.6057V26.6057C294.865 26.6057 288.295 28.1221 282.391 30.8444L285.741 38.1092ZM285.582 38.1782C288.844 36.8419 292.411 36.1046 296.158 36.1046V28.1046C291.352 28.1046 286.756 29.0522 282.55 30.7754L285.582 38.1782ZM296.158 36.1046C311.706 36.1046 324.388 48.8681 324.388 64.7102H332.388C332.388 44.5372 316.211 28.1046 296.158 28.1046V36.1046ZM324.388 64.7102C324.388 80.5523 311.706 93.3157 296.158 93.3157V101.316C316.211 101.316 332.388 84.8831 332.388 64.7102H324.388ZM296.158 93.3157C280.61 93.3157 267.927 80.5523 267.927 64.7102H259.927C259.927 84.8831 276.104 101.316 296.158 101.316V93.3157ZM267.927 64.7102C267.927 56.2853 271.516 48.7243 277.226 43.4899L271.82 37.5926C264.514 44.2896 259.927 53.966 259.927 64.7102H267.927ZM263.43 72.9554C263.43 61.1775 268.734 50.6425 277.099 43.6014L271.947 37.481C261.854 45.9771 255.43 58.718 255.43 72.9554H263.43ZM301.779 111.305C280.599 111.305 263.43 94.1354 263.43 72.9554H255.43C255.43 98.5537 276.181 119.305 301.779 119.305V111.305Z" fill="#E1AC3F" mask="url(#path-13-inside-1_705_172)"/>
<path d="M221.421 101.598L225.621 110.323L229.821 101.598L238.789 97.5112L229.821 93.4247L225.621 84.6995L221.421 93.4247L212.454 97.5112L221.421 101.598Z" fill="#E1AC3F"/>
<path d="M373.738 101.598L377.938 110.323L382.138 101.598L391.105 97.5112L382.138 93.4247L377.938 84.6995L373.738 93.4247L364.77 97.5112L373.738 101.598Z" fill="#E1AC3F"/>
<circle cx="208.895" cy="120.999" r="5.69408" fill="#E1AC3F"/>
<circle cx="393.241" cy="120.999" r="5.69408" fill="#E1AC3F"/>
</svg>
