<svg width="112" height="28" viewBox="0 0 112 28" fill="none" xmlns="http://www.w3.org/2000/svg">
<path fill-rule="evenodd" clip-rule="evenodd" d="M14 26.6062C20.9622 26.6062 26.6062 20.9622 26.6062 14C26.6062 7.03779 20.9622 1.3938 14 1.3938C7.03779 1.3938 1.3938 7.03779 1.3938 14C1.3938 20.9622 7.03779 26.6062 14 26.6062ZM14 28C21.732 28 28 21.732 28 14C28 6.26801 21.732 0 14 0C6.26801 0 0 6.26801 0 14C0 21.732 6.26801 28 14 28Z" fill="#E1AC3F"/>
<path fill-rule="evenodd" clip-rule="evenodd" d="M24.1049 12.5763C23.4122 17.5375 19.152 21.356 14 21.356C8.84799 21.356 4.58781 17.5375 3.89515 12.5763C3.8302 13.0416 3.79662 13.5169 3.79662 14C3.79662 19.6352 8.36483 24.2034 14 24.2034C19.6352 24.2034 24.2034 19.6352 24.2034 14C24.2034 13.5169 24.1698 13.0416 24.1049 12.5763Z" fill="#E1AC3F"/>
<path d="M12.9404 10.3947L14 12.5763L15.0596 10.3947L17.322 9.3729L15.0596 8.35113L14 6.16951L12.9404 8.35113L10.6779 9.3729L12.9404 10.3947Z" fill="#E1AC3F"/>
<path d="M10.3906 14.5247L11.0339 15.8983L11.6773 14.5247L13.0509 13.8814L11.6773 13.238L11.0339 11.8644L10.3906 13.238L9.01697 13.8814L10.3906 14.5247Z" fill="#E1AC3F"/>
<path d="M15.6109 16.1857L16.2543 17.5593L16.8976 16.1857L18.2712 15.5424L16.8976 14.899L16.2543 13.5254L15.6109 14.899L14.2373 15.5424L15.6109 16.1857Z" fill="#E1AC3F"/>
<path d="M111.159 5.36298V22.637H107.963V14.9507H106.527V22.3336H103.372V5.44389H106.527V11.7143H107.963V5.36298H111.159ZM98.5374 18.9152C99.2521 18.9152 99.9735 18.8613 100.702 18.7534C101.443 18.6455 102.064 18.4972 102.563 18.3084V21.2211C102.077 21.4234 101.45 21.5717 100.681 21.6661C99.9263 21.774 99.1577 21.8279 98.3756 21.8279H94.2694V12.3211H98.6183V8.68024H94.2694V5.76752H101.794V15.1934H97.4451V18.9152H98.5374Z" fill="#E1AC3F"/>
<path d="M91.2169 22.637H87.7985V5.36298H91.2169V22.637ZM85.5128 21.8279H75.2778V5.76752H85.5128V21.8279ZM82.0944 18.632V8.96342H78.6962V18.632H82.0944Z" fill="#E1AC3F"/>
<path d="M73.2973 14.9911H71.3757V22.637H68.0382V20.9582L66.2987 21.8886L64.4782 17.9848C64.0332 19.1849 63.4534 20.1019 62.7387 20.7357C62.0374 21.3695 61.1812 21.7336 60.1698 21.8279H60.1496V21.7673L58.855 18.268C58.41 19.3737 57.8437 20.2165 57.1559 20.7964C56.4682 21.3897 55.6322 21.7336 54.6478 21.8279V18.3489C55.4434 18.1736 56.03 17.3442 56.4075 15.8609C56.7851 14.3641 57.0076 12.0582 57.075 8.9432H55.1939V5.76752H61.0396V8.9432H60.2305C60.19 10.5883 60.0821 12.193 59.9068 13.7573L61.4239 17.4791C61.788 16.7644 62.0644 15.7126 62.2532 14.3236C62.442 12.9212 62.5566 11.1277 62.5971 8.9432H61.6464V5.76752H67.3707V8.9432H65.7525C65.7121 10.7771 65.6042 12.3616 65.4289 13.6966L68.0382 18.8748V5.36298H71.3757V11.6739H73.2973V14.9911Z" fill="#E1AC3F"/>
<path d="M52.3032 18.1466H48.8847V5.36298H52.3032V18.1466ZM41.9468 12.6852C41.2456 13.6157 40.3826 14.3641 39.3577 14.9305C38.3329 15.4833 37.2136 15.7733 36 15.8002V12.7055C36.7551 12.6515 37.4294 12.4223 38.0227 12.0177C38.6161 11.6132 39.088 11.1008 39.4386 10.4805C39.8027 9.86016 40.0387 9.19267 40.1466 8.47797H36.2427V5.56525H47.4082V8.47797H43.6054C43.565 8.94994 43.4706 9.45562 43.3223 9.99501L48.1363 13.2111L46.2552 15.6586L41.9468 12.6852ZM52.5459 19.5625V22.637H36.8495V16.5891H40.3286V19.5625H52.5459Z" fill="#E1AC3F"/>
</svg>
