<svg width="24" height="24" viewBox="0 0 24 24" fill="none" xmlns="http://www.w3.org/2000/svg">
<g clip-path="url(#clip0_706_727)">
<rect width="18" height="18" transform="translate(3 3)" fill="white"/>
<path d="M15.429 12.8334C15.429 12.846 15.429 12.8586 15.4272 12.8712C15.4272 12.882 15.4272 12.891 15.4272 12.9C15.4272 12.909 15.4272 12.9198 15.4236 12.9288C15.4236 12.9414 15.4218 12.954 15.42 12.9648C15.42 12.9774 15.4164 12.99 15.4164 13.0026C15.4164 13.0098 15.4146 13.017 15.4128 13.0242C15.4128 13.0332 15.4092 13.0422 15.4092 13.0512C15.4074 13.0638 15.4056 13.0764 15.402 13.089C15.402 13.098 15.3984 13.107 15.3966 13.1178C15.3966 13.1268 15.393 13.1376 15.3912 13.1466C15.3894 13.1574 15.3858 13.1682 15.384 13.1808C15.3732 13.224 15.3606 13.2672 15.348 13.3086C15.339 13.3374 15.3282 13.3644 15.3192 13.3914C15.3084 13.4202 15.2976 13.449 15.285 13.4778C16.0932 11.685 15.312 9.56998 13.5246 8.73658C11.7372 7.90318 9.61496 8.66458 8.76176 10.4358C8.75456 10.4502 8.74916 10.4628 8.74196 10.4772C8.73476 10.4916 8.72936 10.506 8.72216 10.5204C8.70956 10.5492 8.69876 10.5762 8.68796 10.605C8.67716 10.632 8.66816 10.6608 8.65916 10.6878C8.64656 10.7292 8.63396 10.7724 8.62316 10.8156C8.62136 10.8264 8.61776 10.8372 8.61596 10.8498C8.61416 10.8588 8.61236 10.8696 8.61056 10.8786C8.60876 10.8876 8.60696 10.8984 8.60516 10.9074C8.60336 10.92 8.60156 10.9326 8.59796 10.9452C8.59796 10.9542 8.59436 10.9632 8.59436 10.9722C8.59436 10.9794 8.59256 10.9866 8.59076 10.9938C8.59076 11.0064 8.58716 11.019 8.58716 11.0316C8.58716 11.0442 8.58356 11.0568 8.58356 11.0676C8.58356 11.0766 8.58356 11.0874 8.58176 11.0964C8.57996 11.1054 8.58176 11.1162 8.57996 11.1252C8.57996 11.1378 8.57996 11.1504 8.57996 11.163C8.57996 11.1756 8.57996 11.1882 8.57996 11.2026V11.253C8.57996 11.2818 8.57996 11.3088 8.58356 11.3376C8.58356 11.3484 8.58356 11.3592 8.58536 11.3718V11.3754C8.58536 11.3844 8.58536 11.3952 8.58896 11.4042C8.58896 11.424 8.59256 11.442 8.59436 11.4618C8.59436 11.4708 8.59616 11.478 8.59796 11.487C8.59796 11.496 8.59976 11.5032 8.60156 11.5122C8.60156 11.5122 8.60156 11.5158 8.60156 11.5176C8.60156 11.5302 8.60516 11.541 8.60696 11.5536C8.60696 11.5572 8.60696 11.5608 8.60876 11.5644C8.60876 11.5752 8.61236 11.586 8.61416 11.595C8.61416 11.5986 8.61416 11.6004 8.61596 11.604C8.61776 11.6148 8.61956 11.6256 8.62316 11.6364C8.62316 11.64 8.62316 11.6436 8.62676 11.6472C8.62856 11.6562 8.63036 11.667 8.63396 11.6778C8.63396 11.6814 8.63576 11.6868 8.63756 11.6904C8.64116 11.703 8.64296 11.7138 8.64656 11.7246C8.65016 11.739 8.65556 11.7516 8.65916 11.766C8.65916 11.766 8.65916 11.766 8.65916 11.7678C8.66276 11.7804 8.66816 11.793 8.67176 11.8056V11.8092C8.67536 11.8218 8.68076 11.8344 8.68436 11.8488C8.68796 11.8614 8.69336 11.8758 8.69876 11.8884C8.70236 11.901 8.70776 11.9136 8.71316 11.9244C8.71316 11.9262 8.71316 11.928 8.71496 11.9298C8.72036 11.9424 8.72576 11.955 8.73116 11.9676C8.73656 11.9802 8.74196 11.9928 8.74736 12.0054C8.74736 12.0054 8.74736 12.0072 8.74736 12.009C8.75276 12.0216 8.75996 12.0342 8.76536 12.0468C8.77256 12.0594 8.77796 12.072 8.78516 12.0846C8.79236 12.0972 8.79776 12.1098 8.80676 12.1224C8.81396 12.1368 8.82116 12.1476 8.82836 12.1602C8.83376 12.171 8.84096 12.1818 8.84816 12.1926C8.84816 12.1944 8.84996 12.1962 8.85176 12.1998C8.85896 12.2106 8.86616 12.2232 8.87336 12.234C8.88236 12.2466 8.88956 12.2574 8.89856 12.27C8.90576 12.279 8.91296 12.2898 8.92016 12.2988C8.93096 12.3132 8.94176 12.3276 8.95436 12.342C8.96156 12.351 8.96876 12.36 8.97596 12.369C8.97596 12.3708 8.97956 12.3726 8.98136 12.3762C8.98676 12.3834 8.99216 12.3888 8.99756 12.396C9.00116 12.4032 9.00656 12.4086 9.01196 12.414C9.02096 12.423 9.02996 12.4338 9.03896 12.4428C9.04616 12.45 9.05336 12.459 9.06056 12.4662C9.06236 12.4698 9.06416 12.4716 9.06776 12.4734C9.07496 12.4824 9.08396 12.4896 9.09296 12.4986C9.09296 12.5004 9.09656 12.5022 9.09836 12.504C9.10556 12.5112 9.11096 12.5166 9.11996 12.5238C9.13256 12.5364 9.14696 12.5508 9.16136 12.5634C9.16676 12.5688 9.17396 12.5742 9.17936 12.5796C9.18656 12.585 9.19376 12.5922 9.20096 12.5976C9.20996 12.6066 9.22076 12.6138 9.22976 12.6228C9.23696 12.6282 9.24596 12.6354 9.25316 12.6408C9.26216 12.648 9.27116 12.6552 9.28016 12.6624C9.28736 12.6678 9.29636 12.675 9.30356 12.6804C9.31976 12.693 9.33776 12.7056 9.35396 12.7164C9.36116 12.7218 9.36836 12.7272 9.37556 12.7326C9.38816 12.7416 9.40076 12.7488 9.41336 12.7578C9.47636 12.7974 9.54296 12.8334 9.61136 12.8658C10.5114 13.2852 11.5824 12.8964 12.0036 11.9946C12.4248 11.0928 13.4958 10.704 14.3958 11.1234C14.4408 11.145 14.484 11.1666 14.5272 11.1918C14.538 11.1972 14.5488 11.2044 14.5596 11.2098C14.5722 11.217 14.583 11.2242 14.5956 11.2314C14.6082 11.2386 14.6208 11.2476 14.6334 11.2548C14.6406 11.2602 14.6478 11.2656 14.655 11.271C14.6712 11.2818 14.6892 11.2944 14.7054 11.307C14.7144 11.3124 14.7216 11.3196 14.7288 11.325C14.7378 11.3322 14.7468 11.3376 14.7558 11.3466C14.7648 11.3538 14.772 11.3592 14.7792 11.3664C14.7882 11.3736 14.799 11.3826 14.808 11.3916C14.8152 11.397 14.8224 11.4042 14.8296 11.4096C14.8368 11.415 14.8422 11.4204 14.8476 11.4258C14.862 11.4384 14.8764 11.4528 14.889 11.4654C14.8962 11.4726 14.9034 11.478 14.9088 11.4852C14.9106 11.487 14.9124 11.4888 14.9142 11.4906C14.9232 11.4996 14.9304 11.5068 14.9394 11.5158L14.9466 11.523C14.9466 11.523 14.961 11.5392 14.9682 11.5464C14.9772 11.5572 14.9862 11.5662 14.9934 11.5752C14.9988 11.5806 15.0042 11.5878 15.0096 11.5932C15.015 11.6004 15.0204 11.6058 15.0258 11.613C15.0276 11.613 15.0294 11.6166 15.0312 11.6202C15.0384 11.6292 15.0456 11.6382 15.0528 11.6472C15.0636 11.6616 15.0744 11.676 15.087 11.6904C15.0942 11.6994 15.0996 11.7102 15.1086 11.7192C15.1176 11.7318 15.1248 11.7426 15.1338 11.7552C15.141 11.7678 15.1482 11.7786 15.1554 11.7894C15.1554 11.7912 15.1572 11.793 15.159 11.7966C15.1662 11.8074 15.1734 11.8182 15.1788 11.829C15.186 11.8416 15.1932 11.8542 15.2004 11.8668C15.2076 11.8794 15.2148 11.892 15.222 11.9046C15.2292 11.9172 15.2346 11.9298 15.2418 11.9424C15.249 11.955 15.2544 11.9676 15.2598 11.9802V11.9838C15.2652 11.9964 15.2724 12.009 15.276 12.0216C15.2814 12.0342 15.2868 12.0468 15.2922 12.0594C15.2922 12.0612 15.2922 12.063 15.294 12.0648C15.2994 12.0774 15.303 12.09 15.3084 12.1008C15.3138 12.1134 15.3174 12.126 15.3228 12.1404C15.3264 12.153 15.3318 12.1656 15.3354 12.1782V12.1818C15.339 12.1944 15.3444 12.207 15.348 12.2196C15.348 12.2196 15.348 12.2196 15.348 12.2214C15.3516 12.234 15.357 12.2484 15.3606 12.2628C15.3642 12.2754 15.3678 12.2862 15.3696 12.297C15.3696 12.3006 15.3714 12.306 15.3732 12.3096C15.3768 12.3204 15.3786 12.3294 15.3804 12.3402C15.3804 12.3438 15.3822 12.3474 15.384 12.351C15.3858 12.3618 15.3876 12.3726 15.3912 12.3834C15.3912 12.387 15.3912 12.3906 15.393 12.3924C15.3948 12.4032 15.3966 12.414 15.3984 12.423C15.3984 12.4266 15.3984 12.4302 15.4002 12.4338C15.402 12.4464 15.4038 12.459 15.4056 12.4698C15.4056 12.4716 15.4056 12.4734 15.4056 12.4752C15.4056 12.4842 15.4092 12.4932 15.4092 12.5004C15.4092 12.5094 15.4128 12.5166 15.4128 12.5256C15.4164 12.5454 15.4182 12.5634 15.42 12.5832C15.42 12.594 15.4218 12.603 15.4236 12.6138V12.6174C15.4236 12.6282 15.4236 12.639 15.4254 12.6516C15.4254 12.6804 15.429 12.7074 15.429 12.7362V12.7866C15.429 12.7992 15.429 12.8136 15.429 12.8262V12.8334Z" fill="#CD2E3A"/>
<path d="M15.4272 12.6588C15.4272 12.648 15.4272 12.6372 15.4254 12.6246V12.621C15.4254 12.6102 15.4236 12.6012 15.4218 12.5904C15.4218 12.5706 15.4182 12.5526 15.4146 12.5328C15.4146 12.5238 15.4128 12.5166 15.411 12.5076C15.411 12.4986 15.4092 12.4914 15.4074 12.4824C15.4074 12.4824 15.4074 12.4788 15.4074 12.477C15.4074 12.4644 15.4038 12.4536 15.402 12.441C15.402 12.4374 15.402 12.4338 15.4002 12.4302C15.4002 12.4194 15.3966 12.4086 15.3948 12.3996C15.3948 12.396 15.3948 12.3942 15.393 12.3906C15.3912 12.3798 15.3894 12.369 15.3858 12.3582C15.3858 12.3546 15.3858 12.351 15.3822 12.3474C15.3804 12.3366 15.3786 12.3276 15.375 12.3168C15.375 12.3132 15.3732 12.3078 15.3714 12.3042C15.3678 12.2916 15.3642 12.2808 15.3624 12.27C15.3588 12.2574 15.3534 12.243 15.3498 12.2286C15.3498 12.2286 15.3498 12.2286 15.3498 12.2268C15.3462 12.2142 15.3408 12.2016 15.3372 12.189V12.1854C15.3336 12.1728 15.3282 12.1602 15.3246 12.1476C15.3192 12.1332 15.3156 12.1206 15.3102 12.108C15.3048 12.0954 15.3012 12.0828 15.2958 12.072C15.2958 12.0702 15.2958 12.0684 15.294 12.0666C15.2886 12.054 15.2832 12.0414 15.2778 12.0288C15.2724 12.0162 15.267 12.0036 15.2616 11.991C15.2616 11.991 15.2616 11.9892 15.2616 11.9874C15.2562 11.9748 15.249 11.9622 15.2436 11.9496C15.2364 11.937 15.231 11.9244 15.2238 11.9118C15.2166 11.8992 15.2112 11.8866 15.2022 11.874C15.195 11.8596 15.1878 11.8488 15.1806 11.8362C15.1752 11.8254 15.168 11.8146 15.1608 11.8038C15.1608 11.802 15.1572 11.8002 15.1572 11.7966C15.15 11.7858 15.1428 11.775 15.1356 11.7624C15.1266 11.7498 15.1194 11.739 15.1104 11.7264C15.1032 11.7174 15.096 11.7066 15.0888 11.6976C15.078 11.6832 15.0672 11.6688 15.0546 11.6544C15.0474 11.6454 15.0402 11.6364 15.033 11.6274C15.0312 11.6256 15.0294 11.622 15.0276 11.6202C15.0222 11.613 15.0168 11.6076 15.0114 11.6004C15.006 11.595 15.0006 11.5878 14.9952 11.5824C14.9862 11.5734 14.979 11.5626 14.97 11.5536C14.9628 11.5464 14.9556 11.5374 14.9484 11.5302L14.9412 11.523C14.9412 11.523 14.925 11.5068 14.916 11.4978C14.916 11.496 14.9124 11.4942 14.9106 11.4924C14.9052 11.4852 14.898 11.4798 14.8908 11.4726C14.8782 11.46 14.862 11.4456 14.8494 11.433C14.844 11.4276 14.8368 11.4222 14.8314 11.4168C14.8242 11.4114 14.8188 11.4042 14.8098 11.3988C14.8008 11.3898 14.79 11.3826 14.781 11.3736C14.772 11.3664 14.7648 11.361 14.7576 11.3538C14.7486 11.3466 14.7396 11.3394 14.7306 11.3322C14.7234 11.3268 14.7144 11.3196 14.7072 11.3142C14.691 11.3016 14.673 11.289 14.6568 11.2782C14.6496 11.2728 14.6424 11.2674 14.6352 11.262C14.6226 11.253 14.61 11.2458 14.5974 11.2386C14.5848 11.2296 14.574 11.2224 14.5614 11.217C14.5506 11.2116 14.5398 11.2044 14.529 11.199C14.4876 11.1738 14.4426 11.1522 14.3976 11.1306C13.4976 10.7112 12.4266 11.1 12.0054 12.0018C11.586 12.9018 10.515 13.2924 9.61321 12.873C9.54481 12.8406 9.47821 12.8046 9.41521 12.765C9.40261 12.756 9.39001 12.7488 9.37741 12.7398C9.37021 12.7344 9.36301 12.729 9.35581 12.7236C9.33781 12.7128 9.32161 12.7002 9.30541 12.6876C9.29821 12.6822 9.28921 12.675 9.28201 12.6696C9.27301 12.6624 9.26401 12.6552 9.25501 12.648C9.24601 12.6426 9.23881 12.6354 9.23161 12.63C9.22261 12.621 9.21181 12.6138 9.20281 12.6048C9.19561 12.5994 9.18841 12.5922 9.18121 12.5868C9.17581 12.5814 9.16861 12.576 9.16321 12.5706C9.14881 12.558 9.13441 12.5436 9.12181 12.531C9.11461 12.5238 9.10741 12.5184 9.10021 12.5112C9.10021 12.5112 9.09661 12.5076 9.09481 12.5058C9.08581 12.4968 9.07861 12.4896 9.06961 12.4806C9.06601 12.4788 9.06421 12.477 9.06241 12.4734C9.05521 12.4662 9.04801 12.4572 9.04081 12.45C9.03181 12.4392 9.02281 12.4302 9.01381 12.4212C9.00841 12.4158 9.00301 12.4086 8.99941 12.4032C8.99401 12.3978 8.98861 12.3906 8.98321 12.3834C8.98321 12.3798 8.97961 12.378 8.97781 12.3762C8.97061 12.3672 8.96341 12.3582 8.95621 12.3492C8.94541 12.3348 8.93461 12.3204 8.92201 12.306C8.91481 12.297 8.90761 12.2862 8.90041 12.2772C8.89141 12.2646 8.88421 12.2538 8.87521 12.2412C8.86801 12.2304 8.86081 12.2178 8.85361 12.207C8.85361 12.2052 8.85001 12.2034 8.85001 12.1998C8.84281 12.189 8.83561 12.1782 8.83021 12.1674C8.82301 12.1548 8.81581 12.1422 8.80861 12.1296C8.80141 12.117 8.79421 12.1044 8.78701 12.0918C8.77981 12.0792 8.77441 12.0666 8.76721 12.054C8.76001 12.0414 8.75461 12.0288 8.74921 12.0162C8.74921 12.0162 8.74921 12.0144 8.74921 12.0126C8.74381 12 8.73661 11.9874 8.73301 11.9748C8.72761 11.9622 8.72221 11.9496 8.71681 11.937C8.71681 11.9352 8.71681 11.9334 8.71501 11.9316C8.70961 11.919 8.70421 11.9082 8.70061 11.8956C8.69521 11.883 8.68981 11.8704 8.68621 11.856C8.68081 11.8434 8.67721 11.8308 8.67361 11.8164V11.8128C8.67001 11.8002 8.66461 11.7876 8.66101 11.775C8.66101 11.775 8.66101 11.775 8.66101 11.7732C8.65741 11.7606 8.65201 11.7462 8.64841 11.7318C8.64481 11.7192 8.64121 11.7084 8.63941 11.6976C8.63941 11.694 8.63761 11.6886 8.63581 11.685C8.63221 11.6742 8.63041 11.6634 8.62861 11.6544C8.62861 11.6508 8.62681 11.6472 8.62501 11.6436C8.62321 11.6328 8.62141 11.622 8.61781 11.6112C8.61781 11.6076 8.61781 11.604 8.61601 11.6022C8.61421 11.5914 8.61241 11.5806 8.61061 11.5716C8.61061 11.568 8.61061 11.5644 8.60881 11.5608C8.60701 11.5482 8.60521 11.5356 8.60341 11.5248C8.60341 11.523 8.60341 11.5212 8.60341 11.5194C8.60161 11.5104 8.59981 11.5032 8.59981 11.4942C8.59981 11.4852 8.59801 11.478 8.59621 11.469C8.59441 11.4492 8.59261 11.4312 8.59081 11.4114C8.59081 11.4006 8.58901 11.3916 8.58721 11.3826V11.379C8.58721 11.3682 8.58721 11.3574 8.58541 11.3448C8.58541 11.316 8.58181 11.289 8.58181 11.2602V11.2098C8.58181 11.1972 8.58181 11.1828 8.58181 11.1702C8.58181 11.1576 8.58181 11.145 8.58181 11.1324C8.58181 11.1216 8.58181 11.1126 8.58361 11.1036C8.58541 11.0946 8.58361 11.0838 8.58541 11.0748C8.58541 11.0622 8.58901 11.0496 8.58901 11.0388C8.58901 11.0262 8.59261 11.0136 8.59261 11.001C8.59261 10.9938 8.59441 10.9866 8.59621 10.9794C8.59621 10.9704 8.59981 10.9614 8.59981 10.9524C8.60161 10.9398 8.60341 10.9272 8.60701 10.9146C8.60701 10.9056 8.61061 10.8966 8.61241 10.8858C8.61241 10.8768 8.61601 10.866 8.61781 10.857C8.61961 10.8444 8.62321 10.8336 8.62501 10.8228C8.63581 10.7796 8.64841 10.7364 8.66101 10.695C8.67001 10.6662 8.67901 10.6392 8.68981 10.6122C8.70061 10.5834 8.71141 10.5546 8.72401 10.5276C7.91581 12.3204 8.69701 14.4354 10.4844 15.2688C12.2718 16.1022 14.394 15.3408 15.2472 13.5696C15.2544 13.557 15.2598 13.5426 15.267 13.5282C15.2742 13.5138 15.2796 13.4994 15.2868 13.4868C15.2994 13.458 15.3102 13.4292 15.321 13.4004C15.3318 13.3734 15.3426 13.3446 15.3498 13.3176C15.3624 13.2762 15.375 13.233 15.3858 13.1898C15.3876 13.179 15.3912 13.1682 15.393 13.1556C15.3948 13.1448 15.3966 13.1358 15.3984 13.1268C15.4002 13.1178 15.402 13.1088 15.4038 13.098C15.4056 13.0854 15.4074 13.0728 15.411 13.0602C15.411 13.0512 15.4146 13.0422 15.4146 13.0332C15.4146 13.026 15.4164 13.0188 15.4182 13.0116C15.4182 12.999 15.4218 12.9864 15.4218 12.9738C15.4218 12.9612 15.4254 12.9486 15.4254 12.9378C15.4254 12.9288 15.4272 12.918 15.429 12.909C15.429 12.9 15.429 12.8892 15.429 12.8802C15.429 12.8676 15.4308 12.855 15.4308 12.8424C15.4308 12.8298 15.4308 12.8154 15.4308 12.8028V12.7524C15.4308 12.7236 15.4308 12.6966 15.4272 12.6678V12.6588Z" fill="#0047A0"/>
<path d="M7.58609 5.16061L5.16779 7.57892L5.59035 8.00149L8.00866 5.58318L7.58609 5.16061Z" fill="black"/>
<path d="M8.22183 5.7942L5.80353 8.21251L6.22609 8.63508L8.6444 6.21677L8.22183 5.7942Z" fill="black"/>
<path d="M8.85629 6.42834L6.43799 8.84665L6.86056 9.26922L9.27886 6.85091L8.85629 6.42834Z" fill="black"/>
<path d="M15.1607 6.42979L14.7382 6.85236L15.8404 7.95459L16.263 7.53203L15.1607 6.42979Z" fill="black"/>
<path d="M16.4752 7.74558L16.0527 8.16815L17.1562 9.27166L17.5788 8.84909L16.4752 7.74558Z" fill="black"/>
<path d="M15.7967 5.79423L15.3741 6.2168L17.7924 8.6351L18.215 8.21253L15.7967 5.79423Z" fill="black"/>
<path d="M16.4296 5.16073L16.0071 5.5833L17.1093 6.68554L17.5319 6.26297L16.4296 5.16073Z" fill="black"/>
<path d="M17.7443 6.47657L17.3218 6.89914L18.4253 8.00265L18.8479 7.58008L17.7443 6.47657Z" fill="black"/>
<path d="M5.59237 15.9987L5.1698 16.4213L7.5881 18.8396L8.01067 18.417L5.59237 15.9987Z" fill="black"/>
<path d="M6.86019 14.7302L6.43762 15.1528L8.85593 17.5711L9.27849 17.1485L6.86019 14.7302Z" fill="black"/>
<path d="M6.22591 15.364L5.80334 15.7866L6.90686 16.8901L7.32942 16.4675L6.22591 15.364Z" fill="black"/>
<path d="M7.54134 16.6798L7.11877 17.1024L8.22229 18.2059L8.64485 17.7833L7.54134 16.6798Z" fill="black"/>
<path d="M17.1567 14.7288L16.0532 15.8324L16.4758 16.2549L17.5793 15.1514L17.1567 14.7288Z" fill="black"/>
<path d="M15.8409 16.0435L14.7374 17.147L15.16 17.5696L16.2635 16.4661L15.8409 16.0435Z" fill="black"/>
<path d="M16.4754 16.6784L15.3719 17.7819L15.7945 18.2044L16.898 17.1009L16.4754 16.6784Z" fill="black"/>
<path d="M17.7925 15.3642L16.689 16.4677L17.1115 16.8903L18.215 15.7868L17.7925 15.3642Z" fill="black"/>
<path d="M17.1113 17.3138L16.0078 18.4173L16.4304 18.8399L17.5339 17.7364L17.1113 17.3138Z" fill="black"/>
<path d="M18.4258 15.9978L17.3223 17.1013L17.7449 17.5239L18.8484 16.4204L18.4258 15.9978Z" fill="black"/>
</g>
<defs>
<clipPath id="clip0_706_727">
<rect width="18" height="18" fill="white" transform="translate(3 3)"/>
</clipPath>
</defs>
</svg>
